<svg width="7718" height="2842" viewBox="0 0 7718 2842" fill="none" xmlns="http://www.w3.org/2000/svg">
<rect x="2319.08" y="1094.66" width="3079.81" height="1023.44" stroke="#000144" stroke-width="12"/>
<rect x="3855.37" y="3.62889" width="7.25778" height="394.339" stroke="#000144" stroke-width="7.25778"/>
<rect x="2275.54" y="2074.47" width="3157.23" height="757.324" stroke="#000144" stroke-width="12"/>
<rect x="2275.54" y="2483.32" width="3157.23" height="346.05" stroke="#000144" stroke-width="12"/>
<rect x="2275.54" y="2072.05" width="3157.23" height="89.6089" stroke="#000144" stroke-width="12"/>
<path d="M5432.77 934.993V1184.27H5077.04V1163.14H4716.67V1184.27H2873.1V1151.61H2587.72V1184.27H2275.54V934.993H5432.77Z" stroke="#000144" stroke-width="12"/>
<rect x="2275.54" y="1401.91" width="3157.23" height="89.6089" stroke="#000144" stroke-width="12"/>
<rect x="2275.54" y="1639" width="3157.23" height="89.6089" stroke="#000144" stroke-width="12"/>
<path d="M2322.54 714.839H5385.77C5411.73 714.839 5432.77 735.882 5432.77 761.839V823.802H2275.54V761.839L2275.55 761.231C2275.87 735.554 2296.79 714.839 2322.54 714.839Z" stroke="#000144" stroke-width="12"/>
<rect x="2275.54" y="835.804" width="3157.23" height="89.6089" stroke="#000144" stroke-width="12"/>
<rect x="2599.7" y="2338.17" width="471.852" height="471.852" stroke="#000144" stroke-width="12"/>
<rect x="4641.54" y="2338.17" width="471.852" height="471.852" stroke="#000144" stroke-width="12"/>
<rect x="3194.85" y="1776.9" width="370.243" height="65.4163" stroke="#000144" stroke-width="12"/>
<rect x="4588.32" y="1791.42" width="370.243" height="70.2548" stroke="#000144" stroke-width="12"/>
<rect x="2759.38" y="1776.9" width="370.243" height="65.4163" stroke="#000144" stroke-width="12"/>
<rect x="4152.85" y="1791.42" width="370.243" height="70.2548" stroke="#000144" stroke-width="12"/>
<rect x="3195.83" y="1543.97" width="370.243" height="65.4163" stroke="#000144" stroke-width="12"/>
<rect x="4594.16" y="1538.84" width="370.243" height="70.2548" stroke="#000144" stroke-width="12"/>
<rect x="2760.08" y="1543.97" width="370.243" height="65.4163" stroke="#000144" stroke-width="12"/>
<rect x="4158.7" y="1538.84" width="370.243" height="70.2548" stroke="#000144" stroke-width="12"/>
<rect x="3195.83" y="1287.64" width="370.243" height="65.4163" stroke="#000144" stroke-width="12"/>
<rect x="4594.16" y="1282.51" width="370.243" height="70.2548" stroke="#000144" stroke-width="12"/>
<rect x="2760.08" y="1287.64" width="370.243" height="65.4163" stroke="#000144" stroke-width="12"/>
<rect x="4158.7" y="1282.51" width="370.243" height="70.2548" stroke="#000144" stroke-width="12"/>
<rect x="2275.54" y="1856.73" width="3157.23" height="89.6089" stroke="#000144" stroke-width="12"/>
<mask id="path-26-inside-1_66_2" fill="white">
<path d="M3851.71 377.405C3896.87 377.405 3922.7 388.461 3963 408.855C4014.38 434.862 4074.28 505.625 4074.28 505.625V1599.12C4074.28 1575.07 3974.63 1555.58 3851.71 1555.58C3728.79 1555.58 3629.14 1575.07 3629.14 1599.12V505.625C3629.19 505.563 3689.06 434.85 3740.43 408.855C3780.72 388.462 3806.55 377.405 3851.71 377.405Z"/>
</mask>
<path d="M3851.71 377.405V365.405H3851.71L3851.71 377.405ZM3963 408.855L3968.42 398.148L3963 408.855ZM4074.28 505.625H4086.28V501.229L4083.44 497.872L4074.28 505.625ZM4074.28 1599.12L4062.28 1599.13L4086.28 1599.12H4074.28ZM3851.71 1555.58V1543.58V1555.58ZM3629.14 1599.12H3617.14L3641.14 1599.13L3629.14 1599.12ZM3629.14 505.625L3619.98 497.872L3617.14 501.228V505.625H3629.14ZM3740.43 408.855L3735.01 398.148L3740.43 408.855ZM3851.71 377.405V389.405C3894.05 389.405 3917.85 399.457 3957.58 419.562L3963 408.855L3968.42 398.148C3927.55 377.465 3899.7 365.405 3851.71 365.405V377.405ZM3963 408.855L3957.58 419.562C3981.53 431.686 4008.26 454.767 4029.52 475.569C4040.02 485.845 4048.95 495.332 4055.25 502.247C4058.4 505.701 4060.89 508.507 4062.58 510.438C4063.43 511.403 4064.07 512.15 4064.5 512.65C4064.72 512.899 4064.88 513.087 4064.98 513.21C4065.03 513.271 4065.07 513.316 4065.1 513.345C4065.11 513.359 4065.12 513.369 4065.12 513.374C4065.12 513.377 4065.12 513.379 4065.13 513.38C4065.13 513.38 4065.13 513.38 4065.13 513.38C4065.13 513.379 4065.12 513.379 4074.28 505.625C4083.44 497.872 4083.44 497.871 4083.44 497.869C4083.44 497.869 4083.44 497.867 4083.44 497.865C4083.43 497.861 4083.43 497.857 4083.42 497.851C4083.41 497.839 4083.4 497.824 4083.38 497.804C4083.35 497.764 4083.3 497.707 4083.24 497.633C4083.11 497.487 4082.93 497.274 4082.7 496.999C4082.22 496.45 4081.53 495.65 4080.64 494.63C4078.85 492.59 4076.26 489.664 4072.99 486.078C4066.46 478.912 4057.2 469.083 4046.3 458.417C4024.76 437.335 3995.85 412.031 3968.42 398.148L3963 408.855ZM4074.28 505.625H4062.28V1599.12H4074.28H4086.28V505.625H4074.28ZM4074.28 1599.12L4086.28 1599.12C4086.28 1591.65 4082.36 1585.8 4078.05 1581.67C4073.75 1577.56 4068.06 1574.17 4061.83 1571.28C4049.3 1565.49 4031.92 1560.57 4011.4 1556.56C3970.15 1548.49 3913.7 1543.58 3851.71 1543.58V1555.58V1567.58C3912.64 1567.58 3967.48 1572.42 4006.79 1580.11C4026.54 1583.97 4041.76 1588.44 4051.75 1593.07C4056.78 1595.39 4059.84 1597.47 4061.47 1599.02C4063.09 1600.57 4062.28 1600.58 4062.28 1599.13L4074.28 1599.12ZM3851.71 1555.58V1543.58C3789.72 1543.58 3733.27 1548.49 3692.03 1556.56C3671.5 1560.57 3654.13 1565.49 3641.59 1571.28C3635.36 1574.17 3629.67 1577.56 3625.37 1581.67C3621.06 1585.8 3617.14 1591.65 3617.14 1599.12L3629.14 1599.12L3641.14 1599.13C3641.14 1600.58 3640.33 1600.57 3641.96 1599.02C3643.58 1597.47 3646.64 1595.39 3651.67 1593.07C3661.66 1588.44 3676.88 1583.97 3696.63 1580.11C3735.95 1572.42 3790.78 1567.58 3851.71 1567.58V1555.58ZM3629.14 1599.12H3641.14V505.625H3629.14H3617.14V1599.12H3629.14ZM3629.14 505.625L3638.3 513.379C3638.2 513.498 3652.91 496.114 3673.93 475.542C3695.19 454.746 3721.9 431.68 3745.85 419.562L3740.43 408.855L3735.01 398.148C3707.59 412.025 3678.69 437.313 3657.15 458.388C3635.38 479.687 3620.13 497.691 3619.98 497.872L3629.14 505.625ZM3740.43 408.855L3745.85 419.562C3785.57 399.458 3809.37 389.405 3851.71 389.405L3851.71 377.405L3851.71 365.405C3803.73 365.405 3775.87 377.466 3735.01 398.148L3740.43 408.855Z" fill="#000144" mask="url(#path-26-inside-1_66_2)"/>
<path d="M3851.71 1561.58C3912.91 1561.58 3968.15 1566.43 4007.94 1574.22C4027.89 1578.12 4043.65 1582.7 4054.27 1587.62C4059.6 1590.09 4063.32 1592.49 4065.62 1594.69C4067.91 1596.88 4068.28 1598.35 4068.28 1599.13C4068.28 1599.9 4067.91 1601.37 4065.62 1603.56C4063.32 1605.76 4059.6 1608.16 4054.27 1610.63C4043.65 1615.55 4027.89 1620.13 4007.94 1624.03C3968.15 1631.81 3912.91 1636.67 3851.71 1636.67C3790.52 1636.67 3735.28 1631.81 3695.48 1624.03C3675.53 1620.13 3659.78 1615.55 3649.15 1610.63C3643.82 1608.16 3640.1 1605.76 3637.81 1603.56C3635.52 1601.37 3635.14 1599.9 3635.14 1599.13C3635.14 1598.35 3635.52 1596.88 3637.81 1594.69C3640.1 1592.49 3643.82 1590.09 3649.15 1587.62C3659.78 1582.7 3675.53 1578.12 3695.48 1574.22C3735.28 1566.43 3790.52 1561.58 3851.71 1561.58Z" stroke="#000144" stroke-width="12"/>
<mask id="path-29-inside-2_66_2" fill="white">
<path d="M3856.56 987.056C4000.86 987.056 4117.84 1010.88 4117.84 1040.28C4117.84 1049.97 4105.11 1059.06 4082.88 1066.89C4037.7 1050.98 3953.27 1040.28 3856.56 1040.28C3759.85 1040.28 3675.41 1050.98 3630.24 1066.89C3608 1059.06 3595.28 1049.97 3595.28 1040.28C3595.28 1010.88 3712.26 987.056 3856.56 987.056Z"/>
</mask>
<path d="M3856.56 987.056V975.056V987.056ZM4117.84 1040.28H4129.84V1040.28L4117.84 1040.28ZM4082.88 1066.89L4078.89 1078.21L4082.88 1079.61L4086.87 1078.21L4082.88 1066.89ZM3856.56 1040.28V1028.28V1040.28ZM3630.24 1066.89L3626.25 1078.21L3630.24 1079.61L3634.22 1078.21L3630.24 1066.89ZM3595.28 1040.28L3583.28 1040.28V1040.28H3595.28ZM3856.56 987.056V999.056C3928.16 999.056 3992.63 1004.98 4038.92 1014.4C4062.16 1019.14 4080.18 1024.63 4092.1 1030.37C4098.09 1033.26 4101.9 1035.91 4104.06 1038.06C4106.19 1040.18 4105.84 1040.89 4105.84 1040.28L4117.84 1040.28L4129.84 1040.28C4129.84 1032.32 4125.83 1025.86 4121 1021.05C4116.19 1016.27 4109.75 1012.23 4102.51 1008.75C4087.99 1001.76 4067.75 995.784 4043.71 990.886C3995.42 981.051 3929.26 975.056 3856.56 975.056V987.056ZM4117.84 1040.28H4105.84C4105.84 1039.48 4106.33 1041.06 4101.51 1044.68C4096.94 1048.09 4089.5 1051.84 4078.89 1055.57L4082.88 1066.89L4086.87 1078.21C4098.49 1074.11 4108.53 1069.4 4115.89 1063.89C4122.98 1058.58 4129.84 1050.77 4129.84 1040.28H4117.84ZM4082.88 1066.89L4086.87 1055.57C4039.76 1038.98 3953.7 1028.28 3856.56 1028.28V1040.28V1052.28C3952.83 1052.28 4035.65 1062.98 4078.89 1078.21L4082.88 1066.89ZM3856.56 1040.28V1028.28C3759.42 1028.28 3673.36 1038.98 3626.25 1055.57L3630.24 1066.89L3634.22 1078.21C3677.47 1062.98 3760.28 1052.28 3856.56 1052.28V1040.28ZM3630.24 1066.89L3634.22 1055.57C3623.62 1051.84 3616.17 1048.09 3611.61 1044.68C3606.78 1041.06 3607.28 1039.48 3607.28 1040.28H3595.28H3583.28C3583.28 1050.77 3590.14 1058.58 3597.23 1063.89C3604.59 1069.4 3614.62 1074.11 3626.25 1078.21L3630.24 1066.89ZM3595.28 1040.28L3607.28 1040.28C3607.28 1040.89 3606.92 1040.18 3609.05 1038.06C3611.21 1035.91 3615.03 1033.26 3621.02 1030.37C3632.94 1024.63 3650.96 1019.14 3674.2 1014.4C3720.48 1004.98 3784.96 999.056 3856.56 999.056V987.056V975.056C3783.85 975.056 3717.69 981.051 3669.41 990.886C3645.37 995.784 3625.13 1001.76 3610.61 1008.75C3603.37 1012.23 3596.92 1016.27 3592.12 1021.05C3587.29 1025.86 3583.28 1032.32 3583.28 1040.28L3595.28 1040.28Z" fill="#000144" mask="url(#path-29-inside-2_66_2)"/>
<mask id="path-31-inside-3_66_2" fill="white">
<path d="M3851.73 377.405C3896.89 377.405 3922.72 388.461 3963.01 408.855C4014.4 434.862 4074.3 505.625 4074.3 505.625V1599.12C4074.3 1599.02 4074.3 1598.91 4074.29 1598.8V737.871C4074.21 737.769 4014.36 667.088 3963.01 641.1C3922.71 620.707 3896.88 609.65 3851.72 609.65C3806.56 609.65 3780.73 620.707 3740.43 641.1C3689.36 666.95 3629.87 737.015 3629.16 737.863V505.625C3629.16 505.625 3689.06 434.862 3740.44 408.855C3780.74 388.461 3806.57 377.405 3851.73 377.405Z"/>
</mask>
<path d="M3851.73 377.405L3851.73 365.405H3851.73V377.405ZM3963.01 408.855L3968.43 398.148L3968.43 398.148L3963.01 408.855ZM4074.3 505.625H4086.3V501.229L4083.46 497.872L4074.3 505.625ZM4074.3 1599.12L4062.3 1599.13L4086.3 1599.12H4074.3ZM4074.29 1598.8H4062.29V1599.02L4062.3 1599.25L4074.29 1598.8ZM4074.29 737.871H4086.29V733.473L4083.45 730.117L4074.29 737.871ZM3963.01 641.1L3968.43 630.393L3963.01 641.1ZM3851.72 609.65V597.65H3851.72L3851.72 609.65ZM3740.43 641.1L3735.02 630.393L3735.02 630.393L3740.43 641.1ZM3629.16 737.863H3617.16V770.576L3638.31 745.622L3629.16 737.863ZM3629.16 505.625L3620 497.872L3617.16 501.229V505.625H3629.16ZM3740.44 408.855L3735.02 398.148L3735.02 398.148L3740.44 408.855ZM3851.73 377.405L3851.73 389.405C3894.07 389.405 3917.87 399.457 3957.6 419.562L3963.01 408.855L3968.43 398.148C3927.57 377.465 3899.71 365.405 3851.73 365.405L3851.73 377.405ZM3963.01 408.855L3957.6 419.562C3981.55 431.686 4008.28 454.767 4029.53 475.569C4040.03 485.845 4048.97 495.332 4055.27 502.247C4058.42 505.702 4060.91 508.507 4062.6 510.438C4063.44 511.404 4064.09 512.15 4064.52 512.65C4064.73 512.899 4064.89 513.087 4065 513.21C4065.05 513.271 4065.09 513.316 4065.11 513.345C4065.12 513.359 4065.13 513.369 4065.14 513.374C4065.14 513.377 4065.14 513.379 4065.14 513.38C4065.14 513.38 4065.14 513.38 4065.14 513.38C4065.14 513.379 4065.14 513.379 4074.3 505.625C4083.46 497.872 4083.46 497.871 4083.46 497.869C4083.46 497.869 4083.45 497.867 4083.45 497.865C4083.45 497.861 4083.45 497.857 4083.44 497.851C4083.43 497.839 4083.42 497.824 4083.4 497.804C4083.37 497.764 4083.32 497.707 4083.26 497.633C4083.13 497.487 4082.95 497.274 4082.71 496.999C4082.24 496.449 4081.55 495.65 4080.66 494.63C4078.87 492.59 4076.27 489.664 4073.01 486.078C4066.47 478.912 4057.22 469.083 4046.32 458.417C4024.78 437.335 3995.86 412.031 3968.43 398.148L3963.01 408.855ZM4074.3 505.625H4062.3V1599.12H4074.3H4086.3V505.625H4074.3ZM4074.3 1599.12L4086.3 1599.12C4086.3 1598.81 4086.29 1598.54 4086.28 1598.36L4074.29 1598.8L4062.3 1599.25C4062.3 1599.26 4062.3 1599.25 4062.3 1599.23C4062.3 1599.21 4062.3 1599.18 4062.3 1599.13L4074.3 1599.12ZM4074.29 1598.8H4086.29V737.871H4074.29H4062.29V1598.8H4074.29ZM4074.29 737.871L4083.45 730.117C4083.28 729.917 4068.03 711.911 4046.27 690.616C4024.73 669.545 3995.84 644.267 3968.43 630.393L3963.01 641.1L3957.59 651.807C3981.53 663.922 4008.23 686.979 4029.48 707.77C4050.5 728.338 4065.22 745.724 4065.13 745.624L4074.29 737.871ZM3963.01 641.1L3968.43 630.393C3927.56 609.711 3899.7 597.65 3851.72 597.65V609.65V621.65C3894.06 621.65 3917.86 631.703 3957.59 651.807L3963.01 641.1ZM3851.72 609.65L3851.72 597.65C3803.74 597.65 3775.88 609.711 3735.02 630.393L3740.43 641.1L3745.85 651.807C3785.58 631.703 3809.38 621.65 3851.72 621.65L3851.72 609.65ZM3740.43 641.1L3735.02 630.393C3707.75 644.194 3679.02 669.278 3657.53 690.274C3635.81 711.49 3620.49 729.529 3620 730.103L3629.16 737.863L3638.31 745.622C3638.54 745.349 3653.32 727.931 3674.3 707.441C3695.5 686.73 3722.05 663.856 3745.85 651.807L3740.43 641.1ZM3629.16 737.863H3641.16V505.625H3629.16H3617.16V737.863H3629.16ZM3629.16 505.625C3638.31 513.379 3638.31 513.379 3638.31 513.38C3638.31 513.38 3638.31 513.38 3638.31 513.38C3638.31 513.379 3638.32 513.377 3638.32 513.374C3638.32 513.369 3638.33 513.359 3638.34 513.345C3638.37 513.316 3638.41 513.271 3638.46 513.21C3638.56 513.087 3638.72 512.899 3638.94 512.65C3639.37 512.15 3640.01 511.404 3640.86 510.438C3642.55 508.507 3645.04 505.701 3648.19 502.247C3654.49 495.332 3663.42 485.845 3673.92 475.569C3695.18 454.767 3721.91 431.686 3745.86 419.562L3740.44 408.855L3735.02 398.148C3707.59 412.031 3678.68 437.335 3657.14 458.417C3646.24 469.083 3636.98 478.912 3630.45 486.078C3627.18 489.664 3624.59 492.59 3622.8 494.63C3621.91 495.65 3621.22 496.45 3620.74 496.999C3620.51 497.274 3620.32 497.487 3620.2 497.633C3620.14 497.707 3620.09 497.764 3620.05 497.804C3620.04 497.824 3620.02 497.839 3620.01 497.851C3620.01 497.857 3620.01 497.861 3620 497.865C3620 497.867 3620 497.869 3620 497.869C3620 497.871 3620 497.872 3629.16 505.625ZM3740.44 408.855L3745.86 419.562C3785.58 399.457 3809.39 389.405 3851.73 389.405V377.405V365.405C3803.74 365.405 3775.89 377.465 3735.02 398.148L3740.44 408.855Z" fill="#000144" mask="url(#path-31-inside-3_66_2)"/>
<path d="M4317.94 1996.02V2827.7H3385.47V1996.02L3851.71 1676.56L4317.94 1996.02Z" stroke="#000144" stroke-width="12"/>
<mask id="path-34-inside-4_66_2" fill="white">
<path d="M3853.72 2010.85C4047.45 2010.85 4204.51 2154.45 4204.51 2331.59C4204.51 2332.32 4204.51 2333.06 4204.5 2333.8H4204.51V2833.7H3502.92V2333.8H3502.93C3502.92 2333.06 3502.92 2332.32 3502.92 2331.59C3502.92 2154.45 3659.98 2010.85 3853.72 2010.85Z"/>
</mask>
<path d="M3853.72 2010.85V1998.85V2010.85ZM4204.51 2331.59H4216.51H4204.51ZM4204.5 2333.8L4192.5 2333.71L4192.41 2345.8H4204.5V2333.8ZM4204.51 2333.8H4216.51V2321.8H4204.51V2333.8ZM4204.51 2833.7V2845.7H4216.51V2833.7H4204.51ZM3502.92 2833.7H3490.92V2845.7H3502.92V2833.7ZM3502.92 2333.8V2321.8H3490.92V2333.8H3502.92ZM3502.93 2333.8V2345.8H3515.02L3514.93 2333.71L3502.93 2333.8ZM3502.92 2331.59H3490.92H3502.92ZM3853.72 2010.85V2022.85C4041.86 2022.85 4192.51 2162.07 4192.51 2331.59H4204.51H4216.51C4216.51 2146.83 4053.05 1998.85 3853.72 1998.85V2010.85ZM4204.51 2331.59H4192.51C4192.51 2332.3 4192.51 2333 4192.5 2333.71L4204.5 2333.8L4216.5 2333.88C4216.51 2333.12 4216.51 2332.35 4216.51 2331.59H4204.51ZM4204.5 2333.8V2345.8H4204.51V2333.8V2321.8H4204.5V2333.8ZM4204.51 2333.8H4192.51V2833.7H4204.51H4216.51V2333.8H4204.51ZM4204.51 2833.7V2821.7H3502.92V2833.7V2845.7H4204.51V2833.7ZM3502.92 2833.7H3514.92V2333.8H3502.92H3490.92V2833.7H3502.92ZM3502.92 2333.8V2345.8H3502.93V2333.8V2321.8H3502.92V2333.8ZM3502.93 2333.8L3514.93 2333.71C3514.92 2333 3514.92 2332.3 3514.92 2331.59H3502.92H3490.92C3490.92 2332.35 3490.93 2333.12 3490.93 2333.88L3502.93 2333.8ZM3502.92 2331.59H3514.92C3514.92 2162.07 3665.57 2022.85 3853.72 2022.85V2010.85V1998.85C3654.39 1998.85 3490.92 2146.83 3490.92 2331.59H3502.92Z" fill="#000144" mask="url(#path-34-inside-4_66_2)"/>
<rect x="3385.47" y="2503.31" width="932.47" height="324.387" stroke="#000144" stroke-width="12"/>
<circle cx="3851.71" cy="1860.76" r="76.2548" stroke="#000144" stroke-width="12"/>
<path d="M6.00024 2833.41H2274.17V2070.07H2312.99V1952.69H2274.17V1850.13H2312.99V1783.09L6.00024 817.171V2833.41Z" stroke="#000144" stroke-width="12"/>
<path d="M7711.49 2833.41H5443.32V2070.07H5404.5V1952.69H5443.32V1850.13H5404.5V1783.09L7711.49 817.171V2833.41Z" stroke="#000144" stroke-width="12"/>
<path d="M9.09985 2833.41H2274.18V2057.14H2312.99V1952.69H2274.18V1938.49L9.09985 1397.96V2833.41Z" stroke="#000144" stroke-width="12"/>
<path d="M7708.39 2833.41H5443.31V2057.14H5404.5V1952.69H5443.31V1938.49L7708.39 1397.96V2833.41Z" stroke="#000144" stroke-width="12"/>
<path d="M9.10425 2833.41H2274.18V2083.32L9.10425 1630.56V2833.41Z" stroke="#000144" stroke-width="12"/>
<path d="M7708.4 2833.41H5443.32V2083.32L7708.4 1630.56V2833.41Z" stroke="#000144" stroke-width="12"/>
<mask id="path-44-inside-5_66_2" fill="white">
<path d="M1771.22 2063.14C1622.32 2063.14 1501.61 2187.67 1501.61 2341.3C1501.61 2345.03 1501.68 2348.74 1501.82 2352.43H1501.61V2842H2040.83V2352.43H2040.61C2040.75 2348.74 2040.83 2345.03 2040.83 2341.3C2040.83 2187.67 1920.12 2063.14 1771.22 2063.14Z"/>
</mask>
<path d="M1771.22 2063.14V2051.14V2063.14ZM1501.61 2341.3H1489.61H1501.61ZM1501.82 2352.43L1513.82 2351.97L1514.29 2364.43H1501.82V2352.43ZM1501.61 2352.43H1489.61V2340.43H1501.61V2352.43ZM1501.61 2842V2854H1489.61V2842H1501.61ZM2040.83 2842H2052.83V2854H2040.83V2842ZM2040.83 2352.43V2340.43H2052.83V2352.43H2040.83ZM2040.61 2352.43V2364.43H2028.15L2028.62 2351.97L2040.61 2352.43ZM2040.83 2341.3H2052.83H2040.83ZM1771.22 2063.14V2075.14C1629.3 2075.14 1513.61 2193.95 1513.61 2341.3H1501.61H1489.61C1489.61 2181.4 1615.34 2051.14 1771.22 2051.14V2063.14ZM1501.61 2341.3H1513.61C1513.61 2344.87 1513.68 2348.43 1513.82 2351.97L1501.82 2352.43L1489.83 2352.88C1489.69 2349.04 1489.61 2345.18 1489.61 2341.3H1501.61ZM1501.82 2352.43V2364.43H1501.61V2352.43V2340.43H1501.82V2352.43ZM1501.61 2352.43H1513.61V2842H1501.61H1489.61V2352.43H1501.61ZM1501.61 2842V2830H2040.83V2842V2854H1501.61V2842ZM2040.83 2842H2028.83V2352.43H2040.83H2052.83V2842H2040.83ZM2040.83 2352.43V2364.43H2040.61V2352.43V2340.43H2040.83V2352.43ZM2040.61 2352.43L2028.62 2351.97C2028.76 2348.43 2028.83 2344.87 2028.83 2341.3H2040.83H2052.83C2052.83 2345.18 2052.75 2349.04 2052.6 2352.88L2040.61 2352.43ZM2040.83 2341.3H2028.83C2028.83 2193.95 1913.14 2075.14 1771.22 2075.14V2063.14V2051.14C1927.1 2051.14 2052.83 2181.4 2052.83 2341.3H2040.83Z" fill="#000144" mask="url(#path-44-inside-5_66_2)"/>
<mask id="path-46-inside-6_66_2" fill="white">
<path d="M5946.3 2063.14C6095.2 2063.14 6215.91 2187.67 6215.91 2341.3C6215.91 2345.03 6215.83 2348.74 6215.69 2352.43H6215.91V2842H5676.69V2352.43H5676.9C5676.76 2348.74 5676.69 2345.03 5676.69 2341.3C5676.69 2187.67 5797.4 2063.14 5946.3 2063.14Z"/>
</mask>
<path d="M5946.3 2063.14V2051.14H5946.3L5946.3 2063.14ZM6215.91 2341.3H6227.91H6215.91ZM6215.69 2352.43L6203.7 2351.97L6203.23 2364.43H6215.69V2352.43ZM6215.91 2352.43H6227.91V2340.43H6215.91V2352.43ZM6215.91 2842V2854H6227.91V2842H6215.91ZM5676.69 2842H5664.69V2854H5676.69V2842ZM5676.69 2352.43V2340.43H5664.69V2352.43H5676.69ZM5676.9 2352.43V2364.43H5689.37L5688.9 2351.97L5676.9 2352.43ZM5676.69 2341.3H5664.69H5676.69ZM5946.3 2063.14V2075.14C6088.22 2075.14 6203.91 2193.95 6203.91 2341.3H6215.91H6227.91C6227.91 2181.4 6102.18 2051.14 5946.3 2051.14V2063.14ZM6215.91 2341.3H6203.91C6203.91 2344.87 6203.84 2348.43 6203.7 2351.97L6215.69 2352.43L6227.69 2352.88C6227.83 2349.04 6227.91 2345.18 6227.91 2341.3H6215.91ZM6215.69 2352.43V2364.43H6215.91V2352.43V2340.43H6215.69V2352.43ZM6215.91 2352.43H6203.91V2842H6215.91H6227.91V2352.43H6215.91ZM6215.91 2842V2830H5676.69V2842V2854H6215.91V2842ZM5676.69 2842H5688.69V2352.43H5676.69H5664.69V2842H5676.69ZM5676.69 2352.43V2364.43H5676.9V2352.43V2340.43H5676.69V2352.43ZM5676.9 2352.43L5688.9 2351.97C5688.76 2348.43 5688.69 2344.87 5688.69 2341.3H5676.69H5664.69C5664.69 2345.18 5664.77 2349.04 5664.91 2352.88L5676.9 2352.43ZM5676.69 2341.3H5688.69C5688.69 2193.95 5804.38 2075.14 5946.3 2075.14L5946.3 2063.14L5946.3 2051.14C5790.42 2051.14 5664.69 2181.4 5664.69 2341.3H5676.69Z" fill="#000144" mask="url(#path-46-inside-6_66_2)"/>
<mask id="path-48-inside-7_66_2" fill="white">
<path d="M1100.93 1985.51C937.552 1985.51 805.109 2122.16 805.109 2290.72C805.109 2294.81 805.188 2298.88 805.342 2302.93H805.109V2840.1H1396.75V2302.93H1396.51C1396.67 2298.88 1396.75 2294.81 1396.75 2290.72C1396.75 2122.16 1264.3 1985.51 1100.93 1985.51Z"/>
</mask>
<path d="M1100.93 1985.51V1973.51V1985.51ZM805.109 2290.72H793.109H805.109ZM805.342 2302.93L817.334 2302.47L817.809 2314.93H805.342V2302.93ZM805.109 2302.93H793.109V2290.93H805.109V2302.93ZM805.109 2840.1V2852.1H793.109V2840.1H805.109ZM1396.75 2840.1H1408.75V2852.1H1396.75V2840.1ZM1396.75 2302.93V2290.93H1408.75V2302.93H1396.75ZM1396.51 2302.93V2314.93H1384.05L1384.52 2302.47L1396.51 2302.93ZM1396.75 2290.72H1408.75H1396.75ZM1100.93 1985.51V1997.51C944.53 1997.51 817.109 2128.43 817.109 2290.72H805.109H793.109C793.109 2115.88 930.574 1973.51 1100.93 1973.51V1985.51ZM805.109 2290.72H817.109C817.109 2294.65 817.185 2298.57 817.334 2302.47L805.342 2302.93L793.351 2303.39C793.191 2299.19 793.109 2294.96 793.109 2290.72H805.109ZM805.342 2302.93V2314.93H805.109V2302.93V2290.93H805.342V2302.93ZM805.109 2302.93H817.109V2840.1H805.109H793.109V2302.93H805.109ZM805.109 2840.1V2828.1H1396.75V2840.1V2852.1H805.109V2840.1ZM1396.75 2840.1H1384.75V2302.93H1396.75H1408.75V2840.1H1396.75ZM1396.75 2302.93V2314.93H1396.51V2302.93V2290.93H1396.75V2302.93ZM1396.51 2302.93L1384.52 2302.47C1384.67 2298.57 1384.75 2294.65 1384.75 2290.72H1396.75H1408.75C1408.75 2294.96 1408.66 2299.19 1408.5 2303.39L1396.51 2302.93ZM1396.75 2290.72H1384.75C1384.75 2128.43 1257.33 1997.51 1100.93 1997.51V1985.51V1973.51C1271.28 1973.51 1408.75 2115.88 1408.75 2290.72H1396.75Z" fill="#000144" mask="url(#path-48-inside-7_66_2)"/>
<mask id="path-50-inside-8_66_2" fill="white">
<path d="M6603.37 1985.51C6766.74 1985.51 6899.18 2122.16 6899.19 2290.72C6899.19 2294.81 6899.11 2298.88 6898.95 2302.93H6899.19V2840.1H6307.55V2302.93H6307.78C6307.63 2298.88 6307.55 2294.81 6307.55 2290.72C6307.55 2122.16 6439.99 1985.51 6603.37 1985.51Z"/>
</mask>
<path d="M6603.37 1985.51V1973.51V1985.51ZM6899.19 2290.72H6911.19H6899.19ZM6898.95 2302.93L6886.96 2302.47L6886.49 2314.93H6898.95V2302.93ZM6899.19 2302.93H6911.19V2290.93H6899.19V2302.93ZM6899.19 2840.1V2852.1H6911.19V2840.1H6899.19ZM6307.55 2840.1H6295.55V2852.1H6307.55V2840.1ZM6307.55 2302.93V2290.93H6295.55V2302.93H6307.55ZM6307.78 2302.93V2314.93H6320.25L6319.77 2302.47L6307.78 2302.93ZM6307.55 2290.72H6295.55H6307.55ZM6603.37 1985.51V1997.51C6759.76 1997.51 6887.18 2128.43 6887.19 2290.72H6899.19H6911.19C6911.18 2115.88 6773.72 1973.51 6603.37 1973.51V1985.51ZM6899.19 2290.72H6887.19C6887.19 2294.65 6887.11 2298.57 6886.96 2302.47L6898.95 2302.93L6910.94 2303.39C6911.1 2299.19 6911.19 2294.96 6911.19 2290.72H6899.19ZM6898.95 2302.93V2314.93H6899.19V2302.93V2290.93H6898.95V2302.93ZM6899.19 2302.93H6887.19V2840.1H6899.19H6911.19V2302.93H6899.19ZM6899.19 2840.1V2828.1H6307.55V2840.1V2852.1H6899.19V2840.1ZM6307.55 2840.1H6319.55V2302.93H6307.55H6295.55V2840.1H6307.55ZM6307.55 2302.93V2314.93H6307.78V2302.93V2290.93H6307.55V2302.93ZM6307.78 2302.93L6319.77 2302.47C6319.62 2298.57 6319.55 2294.65 6319.55 2290.72H6307.55H6295.55C6295.55 2294.96 6295.63 2299.19 6295.79 2303.39L6307.78 2302.93ZM6307.55 2290.72H6319.55C6319.55 2128.43 6446.97 1997.51 6603.37 1997.51V1985.51V1973.51C6433.01 1973.51 6295.55 2115.88 6295.55 2290.72H6307.55Z" fill="#000144" mask="url(#path-50-inside-8_66_2)"/>
<mask id="path-52-inside-9_66_2" fill="white">
<path d="M404.466 1869.07C241.09 1869.07 108.648 2023.54 108.648 2214.1C108.648 2218.72 108.727 2223.32 108.881 2227.9H108.648V2835.16H700.285V2227.9H700.052C700.207 2223.32 700.285 2218.72 700.285 2214.1C700.285 2023.54 567.842 1869.07 404.466 1869.07Z"/>
</mask>
<path d="M404.466 1869.07L404.466 1857.07H404.466V1869.07ZM108.648 2214.1H96.6478H108.648ZM108.881 2227.9L120.874 2227.5L121.293 2239.9H108.881V2227.9ZM108.648 2227.9H96.6478V2215.9H108.648V2227.9ZM108.648 2835.16V2847.16H96.6478V2835.16H108.648ZM700.285 2835.16H712.285V2847.16H700.285V2835.16ZM700.285 2227.9V2215.9H712.285V2227.9H700.285ZM700.052 2227.9V2239.9H687.64L688.059 2227.5L700.052 2227.9ZM700.285 2214.1H712.285H700.285ZM404.466 1869.07L404.466 1881.07C249.384 1881.07 120.648 2028.37 120.648 2214.1H108.648H96.6478C96.6478 2018.71 232.797 1857.07 404.466 1857.07L404.466 1869.07ZM108.648 2214.1H120.648C120.648 2218.59 120.724 2223.05 120.874 2227.5L108.881 2227.9L96.888 2228.31C96.729 2223.6 96.6478 2218.86 96.6478 2214.1H108.648ZM108.881 2227.9V2239.9H108.648V2227.9V2215.9H108.881V2227.9ZM108.648 2227.9H120.648V2835.16H108.648H96.6478V2227.9H108.648ZM108.648 2835.16V2823.16H700.285V2835.16V2847.16H108.648V2835.16ZM700.285 2835.16H688.285V2227.9H700.285H712.285V2835.16H700.285ZM700.285 2227.9V2239.9H700.052V2227.9V2215.9H700.285V2227.9ZM700.052 2227.9L688.059 2227.5C688.209 2223.05 688.285 2218.59 688.285 2214.1H700.285H712.285C712.285 2218.86 712.204 2223.6 712.045 2228.31L700.052 2227.9ZM700.285 2214.1H688.285C688.285 2028.37 559.549 1881.07 404.466 1881.07V1869.07V1857.07C576.136 1857.07 712.285 2018.71 712.285 2214.1H700.285Z" fill="#000144" mask="url(#path-52-inside-9_66_2)"/>
<mask id="path-54-inside-10_66_2" fill="white">
<path d="M7299.84 1869.07C7463.21 1869.07 7595.66 2023.54 7595.66 2214.1C7595.66 2218.72 7595.58 2223.32 7595.42 2227.9H7595.66V2835.16H7004.02V2227.9H7004.25C7004.1 2223.32 7004.02 2218.72 7004.02 2214.1C7004.02 2023.54 7136.46 1869.07 7299.84 1869.07Z"/>
</mask>
<path d="M7299.84 1869.07V1857.07H7299.84L7299.84 1869.07ZM7595.66 2214.1H7607.66H7595.66ZM7595.42 2227.9L7583.43 2227.5L7583.01 2239.9H7595.42V2227.9ZM7595.66 2227.9H7607.66V2215.9H7595.66V2227.9ZM7595.66 2835.16V2847.16H7607.66V2835.16H7595.66ZM7004.02 2835.16H6992.02V2847.16H7004.02V2835.16ZM7004.02 2227.9V2215.9H6992.02V2227.9H7004.02ZM7004.25 2227.9V2239.9H7016.66L7016.25 2227.5L7004.25 2227.9ZM7004.02 2214.1H6992.02H7004.02ZM7299.84 1869.07V1881.07C7454.92 1881.07 7583.66 2028.37 7583.66 2214.1H7595.66H7607.66C7607.66 2018.71 7471.51 1857.07 7299.84 1857.07V1869.07ZM7595.66 2214.1H7583.66C7583.66 2218.59 7583.58 2223.05 7583.43 2227.5L7595.42 2227.9L7607.42 2228.31C7607.58 2223.6 7607.66 2218.86 7607.66 2214.1H7595.66ZM7595.42 2227.9V2239.9H7595.66V2227.9V2215.9H7595.42V2227.9ZM7595.66 2227.9H7583.66V2835.16H7595.66H7607.66V2227.9H7595.66ZM7595.66 2835.16V2823.16H7004.02V2835.16V2847.16H7595.66V2835.16ZM7004.02 2835.16H7016.02V2227.9H7004.02H6992.02V2835.16H7004.02ZM7004.02 2227.9V2239.9H7004.25V2227.9V2215.9H7004.02V2227.9ZM7004.25 2227.9L7016.25 2227.5C7016.1 2223.05 7016.02 2218.59 7016.02 2214.1H7004.02H6992.02C6992.02 2218.86 6992.1 2223.6 6992.26 2228.31L7004.25 2227.9ZM7004.02 2214.1H7016.02C7016.02 2028.37 7144.75 1881.07 7299.84 1881.07L7299.84 1869.07L7299.84 1857.07C7128.17 1857.07 6992.02 2018.71 6992.02 2214.1H7004.02Z" fill="#000144" mask="url(#path-54-inside-10_66_2)"/>
</svg>
